<svg viewBox="0 0 100 40" xml:space="preserve" xmlns="http://www.w3.org/2000/svg">
    <path d="M.603 25.349h3.449c1.054 0 1.497-.453 1.502-1.494v-9.19H2.1c-1.05 0-1.493.452-1.498 1.493v9.19Zm2.806-1.543c0 .366-.276.366-.335.366a.362.362 0 0 1-.34-.366v-7.603a.358.358 0 0 1 .336-.366.353.353 0 0 1 .348.353l-.023 7.616h.014Zm8.281-9.141H8.237c-1.054 0-1.493.452-1.498 1.493v2.444a1.593 1.593 0 0 0 .648 1.402l1.597 1.209a1.019 1.019 0 0 1 .552.945v1.666a.335.335 0 0 1-.67 0V21.67h-.638c-1.054 0-1.493.452-1.502 1.498v2.18h3.448c1.055 0 1.511-.452 1.502-1.493v-2.412a1.683 1.683 0 0 0-.792-1.497l-1.533-1.267c-.372-.308-.49-.353-.476-.946V16.19a.32.32 0 0 1 .326-.353.357.357 0 0 1 .349.353v1.937h.642c1.204 0 1.475-.607 1.484-1.494v-1.968h.014Zm1.159 10.684h.637c1.055 0 1.498-.453 1.503-1.494v-3.42h.095l.905 4.914h.29c1.678 0 1.615-1.037 1.502-1.494l-.95-4.072 1.1-5.127h-.87c-1.145 0-1.357.61-1.502 1.493l-.452 3.1h-.077v-4.593h-.67c-1.054 0-1.493.452-1.502 1.493v9.19l-.01.01Zm5.678 0h.684c1.267 0 1.43-.611 1.502-1.494l.1-1.357h1.004l.204 2.837h.43c.905 0 1.62-.276 1.498-1.493l-.905-9.19h-2.028c-1.221 0-1.398.61-1.502 1.493l-.986 9.19v.014Zm2.358-4.014.376-5.358h.108l.371 5.358h-.855Zm8.227-.154a1.258 1.258 0 0 0 .778-1.299v-5.217h-3.448c-1.054 0-1.493.452-1.502 1.493v9.19h.638c1.054 0 1.493-.452 1.502-1.493v-2.461h.15l.728 3.955h.321c1.466 0 1.68-.792 1.503-1.494l-.67-2.674Zm-2.036-.96v-4.384h.276c.135 0 .398.095.402.538v3.313c0 .29-.145.534-.402.534h-.276ZM54.905 25.346h.688c1.267 0 1.43-.61 1.502-1.493l.096-1.357H58.2l.203 2.837h.426c.905 0 1.624-.272 1.502-1.493l-.905-9.191h-2.027c-1.222 0-1.399.61-1.503 1.493l-.99 9.204Zm2.358-4.013.38-5.358h.109l.366 5.358h-.855Zm8.227-.154a1.263 1.263 0 0 0 .782-1.299v-5.217h-3.448c-1.054 0-1.497.452-1.502 1.493v9.19h.642c1.055 0 1.494-.452 1.503-1.493v-2.462h.15l.728 3.956h.321c1.466 0 1.679-.792 1.502-1.494l-.674-2.674h-.004Zm-2.032-.96v-4.384h.276c.136 0 .398.095.403.538v3.313c0 .29-.145.534-.408.534h-.271Zm4.457 5.127h.638c1.055 0 1.498-.452 1.502-1.493v-8.018h.385a1.021 1.021 0 0 0 1.064-1.172h-3.928a1.034 1.034 0 0 0-1.027.726 1.033 1.033 0 0 0-.037.446h1.435v9.502l-.032.01Zm8.145-3.167-1.357-7.512h-1.28c-1.055 0-1.494.453-1.503 1.493v9.191h.642c1.055 0 1.494-.453 1.503-1.493v-5.213h.077l1.095 6.701h.452c1.145 0 1.358-.61 1.498-1.493l.855-5.208h.077v6.701h.643c1.054 0 1.493-.452 1.498-1.493v-9.19h-1.557c-1.158 0-1.335.61-1.502 1.493l-1.122 6.018-.019.005Zm5.141 3.168h.688c1.267 0 1.43-.611 1.502-1.494l.095-1.357h1.01l.203 2.837h.425c.905 0 1.625-.272 1.503-1.493l-.905-9.191h-2.028c-1.222 0-1.398.61-1.502 1.493l-.991 9.19v.014Zm2.358-4.014.38-5.358h.108l.367 5.358h-.855Zm4.072 4.014h.263c1.05 0 1.493-.453 1.497-1.494v-3.652h.077l1.286 5.145h.642c1.05 0 1.493-.452 1.498-1.493v-9.19h-.263c-1.05 0-1.493.452-1.497 1.493v3.652h-.077l-1.308-5.145h-.638c-1.054 0-1.498.452-1.502 1.493v9.19h.022Zm6.521 0h.258c1.054 0 1.493-.453 1.502-1.494v-3.652h.077l1.285 5.145h.62c1.055 0 1.494-.452 1.503-1.493v-9.19h-.258c-1.055 0-1.494.452-1.503 1.493v3.638h-.077l-1.285-5.145h-.642c-1.055 0-1.494.453-1.503 1.493v9.19l.023.014Z" fill="#fff"/>
    <path d="M32.596 39.945h13.793c4.212 0 5.973-1.657 6-5.584l.05-34.306H38.642c-4.209 0-5.974 1.657-5.996 5.584l-.05 34.306Z" fill="#d00909"/>
    <path d="M35.447 36.91h1.81c2.996 0 4.25-1.398 4.267-4.733V21.018h1.91l-.023 15.892h1.81c2.996 0 4.245-1.398 4.263-4.733L49.52 3.09h-1.81c-3.036 0-4.244 1.403-4.262 4.738L43.42 17.3h-1.91l.037-14.21h-1.81c-2.996 0-4.25 1.403-4.267 4.738l-.023 29.084Z" fill="#fff"/>
</svg>
