<svg stroke-miterlimit="10" style="fill-rule:nonzero;clip-rule:evenodd;stroke-linecap:round;stroke-linejoin:round" viewBox="0 0 20 40" xml:space="preserve" xmlns="http://www.w3.org/2000/svg">
    <path d="M.079 39.945H13.87c4.213 0 5.973-1.657 6-5.584l.05-34.306H6.124C1.916.055.151 1.712.128 5.64l-.05 34.306Z" fill="#d00909"/>
    <path d="M2.93 36.91h1.81c2.996 0 4.249-1.398 4.267-4.733V21.018h1.91l-.023 15.892h1.81c2.996 0 4.245-1.398 4.263-4.733l.036-29.088h-1.81c-3.036 0-4.245 1.403-4.263 4.738l-.027 9.472h-1.91l.037-14.21H7.22c-2.996 0-4.25 1.403-4.268 4.738L2.93 36.911Z" fill="#fff"/>
</svg>
