<?xml version="1.0" encoding="UTF-8" standalone="no"?>
<!DOCTYPE svg PUBLIC "-//W3C//DTD SVG 1.1//EN" "http://www.w3.org/Graphics/SVG/1.1/DTD/svg11.dtd">
<!-- Created with Vectornator (http://vectornator.io/) -->
<svg stroke-miterlimit="10" style="fill-rule:nonzero;clip-rule:evenodd;stroke-linecap:round;stroke-linejoin:round;" version="1.1" viewBox="0 0 60 60" xml:space="preserve" xmlns="http://www.w3.org/2000/svg" xmlns:xlink="http://www.w3.org/1999/xlink">
<defs/>
<g id="Слой-1">
<path d="M58.0469 4.3125L36.0469 17.5L32.3594 17.5L23.6719 31.1875L32.3594 43.6875L54.5469 43.6875L46.1719 35.1875L44.9532 36.4062L50.5469 42L33.1719 42L25.6719 31.0938L33.2656 19.0938L36.5469 19.0938L49.4532 11.4062L40.9532 20.8125L51.8594 28.0938L51.8594 32.6875L41.3594 32.6875L38.0469 29.4062L36.8594 30.5938L40.5469 34.4062L53.4532 34.4062L53.4532 27.3125L43.3594 20.5938L58.0469 4.3125ZM38.1719 6.6875L33.1719 15.0938L34.5469 16L36.4532 12.6875L36.4532 15.5L38.1719 15.5L38.1719 6.6875ZM2.04688 17.5L10.7656 31.1875L1.95312 43.6875L12.2656 43.6875L16.4532 37.4062L20.6719 43.6875L29.7656 43.6875L20.9532 31.0938L29.6719 17.5L20.6719 17.5L16.4532 24.8125L12.2656 17.5L2.04688 17.5Z" fill="#000000" fill-rule="nonzero" opacity="1" stroke="none"/>
</g>
</svg>
