<?xml version="1.0" encoding="utf-8"?><svg viewBox="0 0 227.1 227.1" xmlns="http://www.w3.org/2000/svg" xmlns:xlink="http://www.w3.org/1999/xlink"><style>:root>svg{display:none}:root>svg:target{display:block}</style><svg stroke-miterlimit="10" viewBox="0 0 60 40" id="logo" xmlns="http://www.w3.org/2000/svg"><path d="M57.188.313l-22 13.187H31.5l-8.688 13.688 8.688 12.5h22.188l-8.376-8.5-1.218 1.218L49.687 38H32.314l-7.5-10.906 7.593-12h3.282l12.906-7.688-8.5 9.407L51 24.093v4.595H40.5l-3.313-3.282L36 26.594l3.688 3.812h12.906v-7.093L42.5 16.593 57.188.314zM37.311 2.687l-5 8.407 1.376.906 1.906-3.313V11.5h1.718V2.687zM1.188 13.5l8.718 13.688-8.812 12.5h10.312l4.188-6.282 4.219 6.282h9.093l-8.812-12.594L28.812 13.5h-9l-4.218 7.313-4.188-7.313H1.187z"/></svg><svg stroke-miterlimit="10" viewBox="0 0 227.096 227.096" id="prew" xmlns="http://www.w3.org/2000/svg"><clipPath id="ba"><path d="M0 0h227.096v227.096H0z"/></clipPath><g clip-path="url(#ba)"><path d="M74.316 194.669l5.902-5.898-64.18-64.19H227.15v-8.35H16.027l64.19-64.179-5.901-5.909L.055 120.404l74.26 74.265z"/></g></svg></svg>